HIERARCHY
ROOT hips
{
  OFFSET 0 10.6860622 2.3727825e-15
  CHANNELS 6 Xposition Yposition Zposition Yrotation Xrotation Zrotation
  JOINT leftUpperLeg
  {
    OFFSET 0.6642549969 -0.9402397400000004 0
    CHANNELS 3 Yrotation Xrotation Zrotation
    JOINT leftLowerLeg
    {
      OFFSET 0 -3.997221335632195 0
      CHANNELS 3 Yrotation Xrotation Zrotation
      JOINT leftFoot
      {
        OFFSET -0.13777839790000004 -4.6145792000000005 -0.22186036399999998
        CHANNELS 3 Yrotation Xrotation Zrotation
        JOINT leftToes
        {
          OFFSET -0.03777410834999995 -0.9130806927000008 0.85230013
          CHANNELS 3 Yrotation Xrotation Zrotation
          End Site
          {
            OFFSET -0.03777410834999995 -0.9130806927000008 0.85230013
          }
        }
      }
    }
  }
  JOINT rightUpperLeg
  {
    OFFSET -0.6642778626 -0.9402397400000004 0
    CHANNELS 3 Yrotation Xrotation Zrotation
    JOINT rightLowerLeg
    {
      OFFSET 0 -3.997221452859387 0
      CHANNELS 3 Yrotation Xrotation Zrotation
      JOINT rightFoot
      {
        OFFSET 0.1377926176 -4.6145792000000005 -0.22185782299999995
        CHANNELS 3 Yrotation Xrotation Zrotation
        JOINT rightToes
        {
          OFFSET 0.037780746850000047 -0.9130806927000008 0.85230167
          CHANNELS 3 Yrotation Xrotation Zrotation
          End Site
          {
            OFFSET 0.037780746850000047 -0.9130806927000008 0.85230167
          }
        }
      }
    }
  }
  JOINT spine
  {
    OFFSET 0 0.13988381660000015 0
    CHANNELS 3 Yrotation Xrotation Zrotation
    JOINT chest
    {
      OFFSET 0 0.6191039003973773 0
      CHANNELS 3 Yrotation Xrotation Zrotation
      JOINT upperChest
      {
        OFFSET 0 0.9855186130586943 0
        CHANNELS 3 Yrotation Xrotation Zrotation
        JOINT leftShoulder
        {
          OFFSET 0.1807663869 1.5087829790000005 0
          CHANNELS 3 Yrotation Xrotation Zrotation
          JOINT leftUpperArm
          {
            OFFSET 0.5985063006419806 0 0
            CHANNELS 3 Yrotation Xrotation Zrotation
            JOINT leftLowerArm
            {
              OFFSET 2.2993332369501065 0 0
              CHANNELS 3 Yrotation Xrotation Zrotation
              JOINT leftHand
              {
                OFFSET 2.395047042602395 0 0
                CHANNELS 3 Yrotation Xrotation Zrotation
                JOINT leftIndexProximal
                {
                  OFFSET 0.5766295810000004 0.04556643899499946 0.17265095988184
                  CHANNELS 3 Yrotation Xrotation Zrotation
                  JOINT leftIndexIntermediate
                  {
                    OFFSET 0.2957229000000008 -0.019352197700001517 -0.007932640616999987
                    CHANNELS 3 Yrotation Xrotation Zrotation
                    JOINT leftIndexDistal
                    {
                      OFFSET 0.19008243099999922 -0.012484908149998475 -0.002786250786000012
                      CHANNELS 3 Yrotation Xrotation Zrotation
                      End Site
                      {
                        OFFSET 0.19008243099999922 -0.012484908149998475 -0.002786250786000012
                      }
                    }
                  }
                }
                JOINT leftMiddleProximal
                {
                  OFFSET 0.5834975091000001 0.0524350405149987 0.02204081888183999
                  CHANNELS 3 Yrotation Xrotation Zrotation
                  JOINT leftMiddleIntermediate
                  {
                    OFFSET 0.33880573540000003 -0.019871473270000717 -0.00000971183179999946
                    CHANNELS 3 Yrotation Xrotation Zrotation
                    JOINT leftMiddleDistal
                    {
                      OFFSET 0.20676022730000088 -0.012221336379999448 0.0001471936708000235
                      CHANNELS 3 Yrotation Xrotation Zrotation
                      End Site
                      {
                        OFFSET 0.20676022730000088 -0.012221336379999448 0.0001471936708000235
                      }
                    }
                  }
                }
                JOINT leftLittleProximal
                {
                  OFFSET 0.5344154683999995 -0.012880921405001189 -0.24414037221816004
                  CHANNELS 3 Yrotation Xrotation Zrotation
                  JOINT leftLittleIntermediate
                  {
                    OFFSET 0.21758961730000093 -0.011650919939999227 0.011893592810000034
                    CHANNELS 3 Yrotation Xrotation Zrotation
                    JOINT leftLittleDistal
                    {
                      OFFSET 0.1475273964999999 -0.008152365682999818 0.006001092492999946
                      CHANNELS 3 Yrotation Xrotation Zrotation
                      End Site
                      {
                        OFFSET 0.1475273964999999 -0.008152365682999818 0.006001092492999946
                      }
                    }
                  }
                }
                JOINT leftRingProximal
                {
                  OFFSET 0.5799399463000003 0.026911854694997794 -0.12150566991816003
                  CHANNELS 3 Yrotation Xrotation Zrotation
                  JOINT leftRingIntermediate
                  {
                    OFFSET 0.26167887460000006 -0.013480186499999602 0.010996293000000053
                    CHANNELS 3 Yrotation Xrotation Zrotation
                    JOINT leftRingDistal
                    {
                      OFFSET 0.17667108799999987 -0.008990287899999228 0.0055541023999999065
                      CHANNELS 3 Yrotation Xrotation Zrotation
                      End Site
                      {
                        OFFSET 0.17667108799999987 -0.008990287899999228 0.0055541023999999065
                      }
                    }
                  }
                }
                JOINT leftThumbProximal
                {
                  OFFSET 0.11018806699999972 -0.09448718900500053 0.17047963138184
                  CHANNELS 3 Yrotation Xrotation Zrotation
                  JOINT leftThumbIntermediate
                  {
                    OFFSET 0.31062601459999983 -0.08126270900000132 0.15443142000000007
                    CHANNELS 3 Yrotation Xrotation Zrotation
                    JOINT leftThumbDistal
                    {
                      OFFSET 0.21627175790000086 -0.08833193599999878 0.018771167799999988
                      CHANNELS 3 Yrotation Xrotation Zrotation
                      End Site
                      {
                        OFFSET 0.21627175790000086 -0.08833193599999878 0.018771167799999988
                      }
                    }
                  }
                }
              }
            }
          }
        }
        JOINT neck
        {
          OFFSET 0 1.5463305265074576 0
          CHANNELS 3 Yrotation Xrotation Zrotation
          JOINT head
          {
            OFFSET 0 0.8456443600000344 0
            CHANNELS 3 Yrotation Xrotation Zrotation
            JOINT leftEye
            {
              OFFSET 0.30408573140000006 0.5104519199999995 0.1276382305
              CHANNELS 3 Yrotation Xrotation Zrotation
              End Site
              {
                OFFSET 0.30408573140000006 0.5104519199999995 0.1276382305
              }
            }
            JOINT rightEye
            {
              OFFSET -0.30409491089999996 0.5104519199999995 0.1276379445
              CHANNELS 3 Yrotation Xrotation Zrotation
              End Site
              {
                OFFSET -0.30409491089999996 0.5104519199999995 0.1276379445
              }
            }
            JOINT jaw
            {
              OFFSET -3.155239131000001e-7 -0.11984121820000082 0.60178107
              CHANNELS 3 Yrotation Xrotation Zrotation
              End Site
              {
                OFFSET -3.155239131000001e-7 -0.11984121820000082 0.60178107
              }
            }
          }
        }
        JOINT rightShoulder
        {
          OFFSET -0.1807303465 1.5087829790000005 0
          CHANNELS 3 Yrotation Xrotation Zrotation
          JOINT rightUpperArm
          {
            OFFSET -0.5985063796536958 0 0
            CHANNELS 3 Yrotation Xrotation Zrotation
            JOINT rightLowerArm
            {
              OFFSET -2.2993322059002854 0 0
              CHANNELS 3 Yrotation Xrotation Zrotation
              JOINT rightHand
              {
                OFFSET -2.395045314457259 0 0
                CHANNELS 3 Yrotation Xrotation Zrotation
                JOINT rightIndexProximal
                {
                  OFFSET -0.5764487688300002 0.0441371204405987 0.17361932004999997
                  CHANNELS 3 Yrotation Xrotation Zrotation
                  JOINT rightIndexIntermediate
                  {
                    OFFSET -0.29573011380000047 -0.01934826376999843 -0.007698921482999974
                    CHANNELS 3 Yrotation Xrotation Zrotation
                    JOINT rightIndexDistal
                    {
                      OFFSET -0.19008373999999884 -0.012503266380000655 -0.0026365778999999897
                      CHANNELS 3 Yrotation Xrotation Zrotation
                      End Site
                      {
                        OFFSET -0.19008373999999884 -0.012503266380000655 -0.0026365778999999897
                      }
                    }
                  }
                }
                JOINT rightMiddleProximal
                {
                  OFFSET -0.5834852037300005 0.05211639405060153 0.02307162440000001
                  CHANNELS 3 Yrotation Xrotation Zrotation
                  JOINT rightMiddleIntermediate
                  {
                    OFFSET -0.33880114510000003 -0.019952774050000954 0.0002455003561999819
                    CHANNELS 3 Yrotation Xrotation Zrotation
                    JOINT rightMiddleDistal
                    {
                      OFFSET -0.20675694929999955 -0.012273788999999091 0.00030209124000002766
                      CHANNELS 3 Yrotation Xrotation Zrotation
                      End Site
                      {
                        OFFSET -0.20675694929999955 -0.012273788999999091 0.00030209124000002766
                      }
                    }
                  }
                }
                JOINT rightLittleProximal
                {
                  OFFSET -0.5346811737299992 -0.011214256288399227 -0.24363941305000003
                  CHANNELS 3 Yrotation Xrotation Zrotation
                  JOINT rightLittleIntermediate
                  {
                    OFFSET -0.21757715980000092 -0.011771559690000988 0.01201554387
                    CHANNELS 3 Yrotation Xrotation Zrotation
                    JOINT rightLittleDistal
                    {
                      OFFSET -0.1475201849000004 -0.00822055339600003 0.006082065407000015
                      CHANNELS 3 Yrotation Xrotation Zrotation
                      End Site
                      {
                        OFFSET -0.1475201849000004 -0.00822055339600003 0.006082065407000015
                      }
                    }
                  }
                }
                JOINT rightRingProximal
                {
                  OFFSET -0.5800810755299999 0.027657985680600072 -0.12066365025000003
                  CHANNELS 3 Yrotation Xrotation Zrotation
                  JOINT rightRingIntermediate
                  {
                    OFFSET -0.26166445029999974 -0.013623118409999302 0.011164098990000045
                    CHANNELS 3 Yrotation Xrotation Zrotation
                    JOINT rightRingDistal
                    {
                      OFFSET -0.17666387530000027 -0.009072900100000503 0.005668185599999959
                      CHANNELS 3 Yrotation Xrotation Zrotation
                      End Site
                      {
                        OFFSET -0.17666387530000027 -0.009072900100000503 0.005668185599999959
                      }
                    }
                  }
                }
                JOINT rightThumbProximal
                {
                  OFFSET -0.10997596379000074 -0.09577489355940072 0.16989765924999997
                  CHANNELS 3 Yrotation Xrotation Zrotation
                  JOINT rightThumbIntermediate
                  {
                    OFFSET -0.31036620999999986 -0.08229339117999834 0.15440884469999996
                    CHANNELS 3 Yrotation Xrotation Zrotation
                    JOINT rightThumbDistal
                    {
                      OFFSET -0.21631306399999906 -0.08825326400000111 0.018656797720000014
                      CHANNELS 3 Yrotation Xrotation Zrotation
                      End Site
                      {
                        OFFSET -0.21631306399999906 -0.08825326400000111 0.018656797720000014
                      }
                    }
                  }
                }
              }
            }
          }
        }
      }
    }
  }
}
MOTION
Frames: 9
Frame Time: 0.03333333333333333
0 11.682712981546562 0 0 0 0 0 0 -5.826343164929014 -0.3712483961610101 -3.6333298826370974 5.838118207697276 0 0 0 0 0 0 0 0 5.826343164929014 0.3712483961610101 -3.6333298826370974 -5.838118207697276 0 0 0 0 0 0 0 -4.610651315171937 0 0 3.0831277533083026 0 0 0 0 0 1.5275236235667615 0 0 0 0 0 0 0 0 0 0 0 0 0 0 0 0 0 0 0 0 0 0 0 0 0 0 0 0 0 0 0 0 0 0 0 0 0 0 0 0 0 0 0 0 0 0 0 0 0 0 0 0 0 0 0 0 1.5275236235667615 0 0 0 0 0 0 0 0 0 0 0 0 0 0 1.5275236235667615 0 0 0 0 0 0 0 0 0 0 0 0 0 0 0 0 0 0 0 0 0 0 0 0 0 0 0 0 0 0 0 0 0 0 0 0 0 0 0 0 0 0 0 0 0 0 0 0 0 0 0 0 0 0 0
-0.08464770166268092 -0.033052508211343555 4.763721799423229 -179.86755590435897 8.99856486536392 0.01042155273343333 10.82845257808293 -36.09462999106128 -1.5865826751460572 3.604730640900383 37.06128228320753 8.17202503859533 7.227274394124526 -12.099377751835574 -16.050135998378984 0 0 0 -11.432246681026324 -35.8094523282859 2.7733365720720853 -3.6227812756611764 37.22656147824954 -8.326724458114432 -7.1378023143374145 -12.110276017410314 15.255395941691248 0 0 0 -0.13901784300710754 16.08717100194727 -0.30100833167145813 -0.5803394575184364 -17.99327497384041 0.5279829972528295 0 0 0 33.56101615425023 24.774087188241708 -12.392676922006496 -117.03744940135354 -51.474743622025066 13.331735992751504 -76.22962579226338 -6.877408036979753 -15.74501499557372 28.10701654726335 -5.75702223101178 -3.6783211869657 0 0 0 0 0 0 0 0 0 0 0 0 0 0 0 0 0 0 0 0 0 0 0 0 0 0 0 0 0 0 0 0 0 0 0 0 0 0 0 0 0 0 0 0 0 0 1.0256876209376442 0 0 -0.8410629875131967 0 0 0 0 0 0 0 0 0 0 -22.142021683641726 20.05372248582273 12.212748938348401 113.46507656480217 -54.37717288966432 -13.056842390520366 55.04333938185434 -1.802923605558794 7.996182149181635 -12.863694269002213 0.6848389272362679 7.394330324205719 0 0 0 0 0 0 0 0 0 0 0 0 0 0 0 0 0 0 0 0 0 0 0 0 0 0 0 0 0 0 0 0 0 0 0 0 0 0 0 0 0 0 0 0 0
-0.08464770166268092 -0.033052508211343555 4.67938274887255 -179.87796931710355 7.390192081127038 0.007880304556967805 10.711422313313413 -33.916607099238135 -1.0913384829868955 3.604730640900383 37.06128228320753 8.17202503859533 7.138406953770702 -12.598614148467616 -16.19285238804912 0 0 0 -11.26632057534228 -33.649090394496206 2.2555052190804346 -3.6227812756611764 37.22656147824954 -8.326724458114432 -7.074917490847118 -12.596824236246979 15.401359646916497 0 0 0 -0.13829226426592883 15.318653835250366 -0.29902790426352605 -0.5724322880930894 -15.408078878855244 0.500747444447215 0 0 0 33.134471889101064 24.582393960670895 -12.48375544764456 -117.03742737417443 -51.474743622025066 13.331725322409664 -75.53949839360114 -6.673868256503418 -15.520205575915085 27.493282977207034 -5.468140261972802 -3.712903050592823 0 0 0 0 0 0 0 0 0 0 0 0 0 0 0 0 0 0 0 0 0 0 0 0 0 0 0 0 0 0 0 0 0 0 0 0 0 0 0 0 0 0 0 0 0 0 0.528444607249524 0 0 -1.6690380162077414 0 0 0 0 0 0 0 0 0 0 -21.741632421131232 19.762461734166372 12.194943984651548 113.77291443100827 -54.38402772760021 -13.423419206088214 53.84805560516065 -1.6587277673173526 7.755854263960661 -12.009424136207292 0.7620403118367294 7.416050756312618 0 0 0 0 0 0 0 0 0 0 0 0 0 0 0 0 0 0 0 0 0 0 0 0 0 0 0 0 0 0 0 0 0 0 0 0 0 0 0 0 0 0 0 0 0
-0.08464770166268092 -0.033052508211343555 4.5950434299296 -179.8883024468339 5.778328009248861 0.0056367104933558575 10.619029032004299 -31.728674347697734 -0.6113491817279554 3.604730640900383 37.06128228320753 8.17202503859533 7.05061709408068 -13.098178666081001 -16.33508341022447 0 0 0 -11.126715536115677 -31.47863695524875 1.7553064334574353 -3.6227818141954033 37.22656576722488 -8.326724458114432 -7.013170480822447 -13.083634012421573 15.54709270861338 0 0 0 -0.1375967936233903 14.549753569309585 -0.2970633761067534 -0.5658390648741466 -12.808045387568914 0.47403278745618066 0 0 0 32.70883080509185 24.390048740578965 -12.573128193630108 -117.03744940135354 -51.474743622025066 13.331735992751504 -74.84849291191252 -6.472930647035601 -15.292915267416985 26.879417430447642 -5.179529248851356 -3.750589656546185 0 0 0 0 0 0 0 0 0 0 0 0 0 0 0 0 0 0 0 0 0 0 0 0 0 0 0 0 0 0 0 0 0 0 0 0 0 0 0 0 0 0 0 0 0 0 0.030814620039535053 0 0 -2.498830896020028 0 0 0 0 0 0 0 0 0 0 -21.341777600696044 19.471255649624297 12.175001261289788 114.08087623048672 -54.38970479876422 -13.790107663036661 52.65071942181654 -1.5193991231984036 7.512269169869825 -11.154585180564798 0.8389574621429119 7.438938790416646 0 0 0 0 0 0 0 0 0 0 0 0 0 0 0 0 0 0 0 0 0 0 0 0 0 0 0 0 0 0 0 0 0 0 0 0 0 0 0 0 0 0 0 0 0
-0.08464770166268092 -0.033052508211343555 4.510704379378922 -179.8985512532601 4.163602169334668 0.0036876495581525393 10.549558513550243 -29.532602419871765 -0.1445646431658993 3.6047301070070907 37.061278003594204 8.17202503859533 6.963905466536171 -13.598051631664747 -16.476852802127915 0 0 0 -11.01155992478155 -29.299856673074153 1.270551956823382 -3.6227812756611764 37.22656147824954 -8.326724458114432 -6.952562973226313 -13.570686784975681 15.692606894670977 0 0 0 -0.13692979258648685 13.780538726285304 -0.2951146568743187 -0.560516276818796 -10.19574436630261 0.4477461039181678 0 0 0 32.284126729476185 24.197086045263976 -12.660815298760093 -117.03746425461449 -51.47475458788396 13.331743787036332 -74.15666579646533 -6.274650997794192 -15.063196040137269 26.265446415812097 -4.891246616180897 -3.7913742553404775 0 0 0 0 0 0 0 0 0 0 0 0 0 0 0 0 0 0 0 0 0 0 0 0 0 0 0 0 0 0 0 0 0 0 0 0 0 0 0 0 0 0 0 0 0 0 -0.467185367012484 0 0 -3.3303619461716503 0 0 0 0 0 0 0 0 0 0 -20.942465777062043 19.180145247092362 12.152944959330076 114.3888992433991 -54.394232943330664 -14.156874119558411 51.45162267508252 -1.385053291117799 7.265583661480603 -10.299262643072256 0.9155630698059045 7.4629815093480385 0 0 0 0 0 0 0 0 0 0 0 0 0 0 0 0 0 0 0 0 0 0 0 0 0 0 0 0 0 0 0 0 0 0 0 0 0 0 0 0 0 0 0 0 0
-0.08464770166268092 -0.033052508211343555 4.4263653288282425 -179.90875387891663 2.5466480101981 0.002028317662181064 10.501558309362473 -27.330208842809814 0.31084022751555673 3.604730640900383 37.06128228320753 8.17202503859533 6.878272401446543 -14.098209755758676 -16.61817237734879 0 0 0 -10.919219679727119 -27.11453154974566 0.7992771407427322 -3.6227812756611764 37.22656147824954 -8.326724458114432 -6.893093733400786 -14.057953320819378 15.8379131314136 0 0 0 -0.13629079002896521 13.011089208001266 -0.2931811265372506 -0.5564274223944286 -7.573825441864185 0.42179694484531915 0 0 0 31.86033296016257 24.00352145419395 -12.74681166332207 -117.03744940135354 -51.474743622025066 13.331735992751504 -73.46409016301979 -6.079079233984475 -14.831098563708936 25.651363824751613 -4.6033433068022225 -3.8352495269007267 0 0 0 0 0 0 0 0 0 0 0 0 0 0 0 0 0 0 0 0 0 0 0 0 0 0 0 0 0 0 0 0 0 0 0 0 0 0 0 0 0 0 0 0 0 0 -0.9655354129195883 0 0 -4.163547811248218 0 0 0 0 0 0 0 0 0 0 -20.543676937411544 18.88913695921139 12.128774136531831 114.69694270053061 -54.397588315793634 -14.5236841057016 50.25102414007813 -1.2557940020912006 7.015943526343443 -9.443555292913041 0.9918318490681689 7.4881773783910415 0 0 0 0 0 0 0 0 0 0 0 0 0 0 0 0 0 0 0 0 0 0 0 0 0 0 0 0 0 0 0 0 0 0 0 0 0 0 0 0 0 0 0 0 0
-0.08464770166268092 -0.033052508211343555 4.342026009885292 -179.9189193651467 0.9281059877430399 0.0006563279296365703 10.47375226585919 -25.123297608197312 0.756512173385171 3.604730640900383 37.06128228320753 8.17202503859533 6.793708778366853 -14.598621662245264 -16.759042281229085 0 0 0 -10.848293625129784 -24.92447250204667 0.3397209994085809 -3.6227812756611764 37.22656147824954 -8.326724458114432 -6.83476687078658 -14.5454173976245 15.983029785488053 0 0 0 -0.13568150715509786 12.24145520850139 -0.29126076292603986 -0.5535453229585601 -4.944994469014878 0.39609858054493374 0 0 0 31.437454073486787 23.80936108493747 -12.831119494304433 -117.03744940135354 -51.474743622025066 13.331735992751504 -72.7708012284032 -5.886268013344871 -14.596665922115157 25.0372033107519 -4.315873655750687 -3.882208849705635 0 0 0 0 0 0 0 0 0 0 0 0 0 0 0 0 0 0 0 0 0 0 0 0 0 0 0 0 0 0 0 0 0 0 0 0 0 0 0 0 0 0 0 0 0 0 -1.46421842284173 0 0 -4.998307026652877 0 0 0 0 0 0 0 0 0 0 -20.14541356158531 18.598284018462866 12.10251370511547 115.00514544881655 -54.39983516090455 -14.890616460221446 49.04923246465015 -1.1317219559156888 6.763513684739301 -8.58755111849131 1.0677363737076622 7.514518582041267 0 0 0 0 0 0 0 0 0 0 0 0 0 0 0 0 0 0 0 0 0 0 0 0 0 0 0 0 0 0 0 0 0 0 0 0 0 0 0 0 0 0 0 0 0
-0.08464770166268092 -0.033052508211343555 4.257686959334612 -179.92905683369702 -0.6913789848502918 -0.00042803912576039647 10.465057124961406 -22.91370999303814 1.1939383007186293 3.604730640900383 37.06128228320753 8.17202503859533 6.710223417011313 -15.099268112227366 -16.899490786481696 0 0 0 -10.797549428795916 -22.731472913485906 -0.10970897612704891 -3.6227812756611764 37.22656147824954 -8.326724458114432 -6.777584879835157 -15.033051173083702 16.12796399929217 0 0 0 -0.13509919497042994 11.471729234888352 -0.28935527717007226 -0.5518480419106924 -2.3119919913973055 0.3705658850416083 0 0 0 31.015501955068004 23.6146221640487 -12.913730978260237 -117.03744940135354 -51.474743622025066 13.331735992751504 -72.07686702245198 -5.6962680043577665 -14.359959270264989 24.422952399241435 -4.0288924016053445 -3.9322416290053566 0 0 0 0 0 0 0 0 0 0 0 0 0 0 0 0 0 0 0 0 0 0 0 0 0 0 0 0 0 0 0 0 0 0 0 0 0 0 0 0 0 0 0 0 0 0 -1.963214441126912 0 0 -5.8345518841758475 0 0 0 0 0 0 0 0 0 0 -19.747658099760457 18.30758534250588 12.074163540560047 115.31343421587188 -54.40094982947658 -15.257621595875106 47.84653210114167 -1.0129318249413033 6.5084557831223 -7.731346412689497 1.143251773075884 7.541996425680328 0 0 0 0 0 0 0 0 0 0 0 0 0 0 0 0 0 0 0 0 0 0 0 0 0 0 0 0 0 0 0 0 0 0 0 0 0 0 0 0 0 0 0 0 0
-0.08464770166268092 -0.033052508211343555 4.173348177176206 -179.93915950596102 -2.311161020337051 -0.001227480052710629 10.474528387554695 -20.703260889269323 1.6244710812118925 3.604730640900383 37.06128228320753 8.17202503859533 6.627807036501264 -15.600120847940666 -17.039516538688627 0 0 0 -10.765923691386003 -20.537334424774663 -0.5504576388680813 -3.6227812756611764 37.22656147824954 -8.326724458114432 -6.721548646449506 -15.52083452881662 16.272734962406847 0 0 0 -0.1345446737963084 10.701958775941856 -0.28746136689777835 -0.55132629700196 0.3224015978965354 0.34511886756743076 0 0 0 30.59447022050658 23.419338527294016 -12.994657309706575 -117.03744940135354 -51.474743622025066 13.331735992751504 -71.38234155655972 -5.50912617590422 -14.12101631230233 23.808650724149953 -3.742452988558598 -3.985340523238678 0 0 0 0 0 0 0 0 0 0 0 0 0 0 0 0 0 0 0 0 0 0 0 0 0 0 0 0 0 0 0 0 0 0 0 0 0 0 0 0 0 0 0 0 0 0 -2.462504429644995 0 0 -6.6722010680629245 0 0 0 0 0 0 0 0 0 0 -19.35040321274151 18.017072188512547 12.043733207009941 115.62157518591691 -54.40085596148147 -15.624524883770547 46.64320726064915 -0.8995069094383705 6.250939232948189 -6.875034374848428 1.2183522094312593 7.570600526036698 0 0 0 0 0 0 0 0 0 0 0 0 0 0 0 0 0 0 0 0 0 0 0 0 0 0 0 0 0 0 0 0 0 0 0 0 0 0 0 0 0 0 0 0 0
